<svg xmlns="http://www.w3.org/2000/svg" xmlns:xlink="http://www.w3.org/1999/xlink" version="1.1" x="0px" y="0px" viewBox="0 0 100 100" enable-background="new 0 0 100 100" xml:space="preserve">
    <g>
        <polygon fill="#000000" points="20.469,6 34.94,24.956 25.17,6.516 49.043,42.582 81.098,17.992 71.358,28.9 90.175,16.913    
        70.542,33.964 84.851,25.506 79.547,32.02 98,22.909 55.6,52.566 72.455,78.17 67.912,75.063 78.338,90.923 64.408,74.55    
        71.659,86.128 61.659,76.617 70.613,92.729 46.772,58.521 9.785,83.996 18.888,74.122 3,84.268 11.2,75.563 3.802,77.642    
        40.379,49.339 19.024,18.232 30.202,28.768 23.777,15.471 28.681,20.132  "/>
    </g>
</svg>